<svg width="100" height="100" xmlns="http://www.w3.org/2000/svg" xmlns:xlink="http://www.w3.org/1999/xlink"><defs><linearGradient x1="34.952%" y1="0%" x2="116.04%" y2="115.484%" id="a"><stop stop-color="#1700FF" offset="0%"/><stop stop-color="#B10EF1" offset="100%"/></linearGradient><linearGradient x1="0%" y1="0%" x2="115.292%" y2="112.549%" id="d"><stop stop-color="#1700FF" offset="0%"/><stop stop-color="#9E0CF3" offset="83.2%"/><stop stop-color="#B10EF1" offset="100%"/></linearGradient><filter x="-35.7%" y="-28.3%" width="162.4%" height="162.5%" filterUnits="objectBoundingBox" id="b"><feOffset dx="-3" dy="2" in="SourceAlpha" result="shadowOffsetOuter1"/><feGaussianBlur stdDeviation="6.5" in="shadowOffsetOuter1" result="shadowBlurOuter1"/><feColorMatrix values="0 0 0 0 0.0296505968 0 0 0 0 0.0172602666 0 0 0 0 0.100446429 0 0 0 0.423177083 0" in="shadowBlurOuter1"/></filter><filter x="-51.5%" y="-62.9%" width="203.1%" height="225.8%" filterUnits="objectBoundingBox" id="e"><feOffset in="SourceAlpha" result="shadowOffsetOuter1"/><feGaussianBlur stdDeviation="6.5" in="shadowOffsetOuter1" result="shadowBlurOuter1"/><feColorMatrix values="0 0 0 0 1 0 0 0 0 1 0 0 0 0 1 0 0 0 0.588937953 0" in="shadowBlurOuter1"/></filter><rect id="c" x="19.878" y="5.461" width="67.258" height="67.201" rx="9"/><path d="M40.209 6.21c-.961-.968-2.106-1.453-3.436-1.453s-2.463.485-3.4 1.453L16.306 23.762l-4.286-4.397c-.936-.969-2.069-1.453-3.399-1.453s-2.475.484-3.436 1.453c-.936.969-1.404 2.143-1.404 3.522 0 1.378.468 2.552 1.404 3.521l7.685 7.9c.96.97 2.106 1.454 3.436 1.454s2.463-.485 3.399-1.454l20.505-21.054c.936-.994 1.404-2.174 1.404-3.54 0-1.367-.468-2.535-1.404-3.504Z" id="f"/></defs><g fill="none" fill-rule="evenodd"><path d="m20.022 15.124 54.16-.93a9 9 0 0 1 9.156 8.998v48.85a9 9 0 0 1-8.846 9l-54.16.93a9 9 0 0 1-9.155-8.998V24.123a9 9 0 0 1 8.845-8.999Z" fill="url(#a)" transform="rotate(156 45.497 52.017)"/><g transform="rotate(-9 105.785 53.48)"><use fill="#000" filter="url(#b)" xlink:href="#c"/><use fill="#FBFBFB" xlink:href="#c"/></g><g><path d="M41.11 10.562c-.961-.969-2.106-1.453-3.437-1.453-1.33 0-2.463.484-3.399 1.453L17.206 28.114l-4.286-4.397c-.936-.969-2.069-1.453-3.399-1.453s-2.475.484-3.436 1.453c-.936.969-1.404 2.143-1.404 3.521 0 1.38.468 2.553 1.404 3.522l7.685 7.9c.96.97 2.106 1.454 3.436 1.454s2.463-.485 3.399-1.454l20.504-21.055c.936-.993 1.404-2.173 1.404-3.54 0-1.366-.468-2.534-1.404-3.503Z" fill="url(#d)" opacity=".3" transform="rotate(-16 120.424 -70.62)"/><path d="M42.01 14.262c-.96-.969-2.106-1.453-3.436-1.453s-2.463.484-3.399 1.453L18.106 31.814l-4.285-4.397c-.936-.969-2.07-1.453-3.4-1.453s-2.474.484-3.435 1.453c-.203.21-.384.43-.544.66-.573.828-.86 1.782-.86 2.861 0 1.38.468 2.553 1.404 3.522l7.685 7.9c.96.97 2.105 1.454 3.435 1.454s2.464-.485 3.4-1.454L42.01 21.305c.936-.993 1.404-2.173 1.404-3.54 0-1.366-.468-2.534-1.404-3.503Z" fill="url(#d)" opacity=".2" transform="rotate(-16 121.325 -66.92)"/><g transform="rotate(-16 119.523 -74.971)"><use fill="#000" filter="url(#e)" xlink:href="#f"/><use fill="url(#d)" xlink:href="#f"/></g></g></g></svg>